<?xml version="1.0" encoding="UTF-8"?>
<svg version="1.1" xmlns="http://www.w3.org/2000/svg" width="147" height="185">
<path d="M0 0 C4.74286727 2.74993607 8.18697156 6.01933814 10.5625 11 C11.26089646 14.01857261 11.54817243 16.90524487 11.5625 20 C12.635 20.061875 13.7075 20.12375 14.8125 20.1875 C26.87594756 21.7619182 38.25565632 28.81003579 46.1875 37.875 C48.5625 41 48.5625 41 49.5625 43 C49.62308594 41.78441406 49.68367188 40.56882813 49.74609375 39.31640625 C49.83048332 37.73175772 49.9151321 36.14712298 50 34.5625 C50.03931641 33.76005859 50.07863281 32.95761719 50.11914062 32.13085938 C50.44921875 26.11328125 50.44921875 26.11328125 51.5625 25 C54.5 24.75 54.5 24.75 57.5625 25 C59.78618846 28.33553269 59.86836819 29.7036833 60.0546875 33.62109375 C60.12042969 34.72130859 60.18617188 35.82152344 60.25390625 36.95507812 C60.37607572 39.27239897 60.49068837 41.59013084 60.59765625 43.90820312 C60.66597656 45.00970703 60.73429687 46.11121094 60.8046875 47.24609375 C60.8547998 48.25341553 60.90491211 49.2607373 60.95654297 50.29858398 C61.70437004 53.63247057 63.10967267 54.70408454 65.5625 57 C66.66308519 61.54908544 66.92529192 63.86894284 65.5 68.3125 C63.5625 71 63.5625 71 60.5625 72.4375 C56.41050563 74.59999707 56.03719658 76.65783783 54.5625 81 C55.5525 80.67 56.5425 80.34 57.5625 80 C61.290349 79.72386304 63.9408699 79.75675344 67.4375 81.125 C69.5625 83 69.5625 83 70.625 85.6875 C70.51538856 91.49690654 68.31479308 95.15190254 64.34765625 99.3359375 C56.97837937 106.17153793 50.80542301 111.45127198 40.5625 112 C40.61470703 112.94746094 40.61470703 112.94746094 40.66796875 113.9140625 C41.06111213 126.90651524 38.77599798 137.95487067 30.00390625 147.73828125 C23.50557785 154.01844035 15.42591183 156.20875974 6.5625 156.5 C-3.02474041 156.17483101 -10.73665317 153.61782032 -17.71875 146.921875 C-24.37699899 139.47674203 -26.78548477 131.91756597 -26.4375 122 C-27.17613281 122.28875 -27.91476563 122.5775 -28.67578125 122.875 C-35.51912022 125.37929685 -42.11524355 127.33679353 -49.4375 126 C-51.7109375 124.703125 -51.7109375 124.703125 -53.4375 123 C-54.12067869 118.96924576 -54.27680714 116.55998429 -52.33203125 112.9453125 C-50.80589505 110.84227226 -49.18580755 108.92198048 -47.4375 107 C-46.88449219 106.37867187 -46.33148438 105.75734375 -45.76171875 105.1171875 C-41.30760927 100.38661605 -36.11958526 95.38355055 -29.4375 94.6875 C-28.7775 94.790625 -28.1175 94.89375 -27.4375 95 C-27.4375 94.34 -27.4375 93.68 -27.4375 93 C-28.4584375 92.7215625 -28.4584375 92.7215625 -29.5 92.4375 C-36.74503613 88.89205679 -41.2392627 82.23656458 -44.4375 75 C-44.4375 74.34 -44.4375 73.68 -44.4375 73 C-45.200625 72.773125 -45.96375 72.54625 -46.75 72.3125 C-50.1868432 70.63404169 -51.06811787 69.57560889 -52.4375 66 C-52.57999951 62.85931072 -52.37870854 60.00363818 -51.4375 57 C-50.43783203 55.98099609 -50.43783203 55.98099609 -49.41796875 54.94140625 C-46.35264565 50.38876662 -46.83919475 45.80648241 -46.8125 40.4375 C-46.7869406 38.37357852 -46.75340475 36.30973657 -46.7109375 34.24609375 C-46.70497559 33.33529053 -46.69901367 32.4244873 -46.69287109 31.48608398 C-46.4253781 28.8819911 -45.75462888 27.24068945 -44.4375 25 C-42.43795254 24.95745644 -40.43708364 24.95919217 -38.4375 25 C-36.42268266 27.01481734 -36.7160973 30.79076863 -36.375 33.5625 C-36.28412109 34.27341797 -36.19324219 34.98433594 -36.09960938 35.71679688 C-35.87510497 37.47738403 -35.65581603 39.23863478 -35.4375 41 C-33.1275 38.36 -30.8175 35.72 -28.4375 33 C-29.38625 31.96875 -30.335 30.9375 -31.3125 29.875 C-35.20316939 25.27610002 -36.70751749 21.55693484 -36.3125 15.5 C-35.43752573 9.57403787 -32.78491905 5.84405343 -28.0625 2.25 C-20.03091683 -3.45965628 -8.87144438 -3.98611041 0 0 Z " fill="#E9EAEB" transform="translate(68.4375,12)"/>
<path d="M0 0 C1.63001953 0.01353516 1.63001953 0.01353516 3.29296875 0.02734375 C4.12441406 0.03894531 4.95585937 0.05054687 5.8125 0.0625 C5.8125 0.7225 5.8125 1.3825 5.8125 2.0625 C6.4725 2.0625 7.1325 2.0625 7.8125 2.0625 C8.13417938 7.31659652 7.79714279 11.65165131 4.8125 16.0625 C-2.28684612 23.60916265 -9.66591163 29.49884348 -20.1875 30.0625 C-20.13529297 31.00996094 -20.13529297 31.00996094 -20.08203125 31.9765625 C-19.68888787 44.96901524 -21.97400202 56.01737067 -30.74609375 65.80078125 C-37.24442215 72.08094035 -45.32408817 74.27125974 -54.1875 74.5625 C-63.77474041 74.23733101 -71.48665317 71.68032032 -78.46875 64.984375 C-85.12699899 57.53924203 -87.53548477 49.98006597 -87.1875 40.0625 C-87.92613281 40.35125 -88.66476563 40.64 -89.42578125 40.9375 C-96.26912022 43.44179685 -102.86524355 45.39929353 -110.1875 44.0625 C-112.4609375 42.765625 -112.4609375 42.765625 -114.1875 41.0625 C-114.87067869 37.03174576 -115.02680714 34.62248429 -113.08203125 31.0078125 C-107.20695132 22.91185785 -100.98229462 16.25584122 -90.9609375 14.375 C-85.56285655 13.76676553 -80.33003983 14.34832006 -75.1875 16.0625 C-75.125625 17.01125 -75.06375 17.96 -75 18.9375 C-74.54197144 22.19711685 -74.54197144 22.19711685 -72 23.375 C-60.70659819 26.13560933 -44.95754837 27.29200002 -34.1875 22.0625 C-33.47043018 20.08001285 -32.80459587 18.07834651 -32.1875 16.0625 C-29.48593892 14.7403657 -26.79672597 13.87034432 -23.9140625 13.01953125 C-21.17306709 12.05743401 -19.45374021 10.83456008 -17.1875 9.0625 C-16.5275 9.0625 -15.8675 9.0625 -15.1875 9.0625 C-14.81625 8.19625 -14.81625 8.19625 -14.4375 7.3125 C-10.90170435 0.94806782 -6.94672524 -0.07469597 0 0 Z " fill="#F2F3F4" transform="translate(129.1875,93.9375)"/>
<path d="M0 0 C1.010625 0.0825 2.02125 0.165 3.0625 0.25 C5.28618846 3.58553269 5.36836819 4.9536833 5.5546875 8.87109375 C5.62042969 9.97130859 5.68617188 11.07152344 5.75390625 12.20507812 C5.87607572 14.52239897 5.99068837 16.84013084 6.09765625 19.15820312 C6.16597656 20.25970703 6.23429687 21.36121094 6.3046875 22.49609375 C6.3547998 23.50341553 6.40491211 24.5107373 6.45654297 25.54858398 C7.20437004 28.88247057 8.60967267 29.95408454 11.0625 32.25 C12.15502591 36.76577378 12.40028312 39.13109341 11.0625 43.5625 C8.40573582 47.13252687 6.23299281 47.83360622 2.0625 49.25 C2.0625 48.59 2.0625 47.93 2.0625 47.25 C1.27875 47.724375 0.495 48.19875 -0.3125 48.6875 C-3.65035621 50.12623112 -5.25829213 50.42087066 -8.75 50.5625 C-13.86860562 50.92318136 -16.71375815 52.76448223 -20.78125 55.7578125 C-23.9538429 57.95333875 -27.26773239 59.13959061 -30.9375 60.25 C-32.50951172 60.77207031 -32.50951172 60.77207031 -34.11328125 61.3046875 C-47.11140075 64.5177058 -61.7250253 62.84300104 -73.65625 56.89453125 C-78.80324889 53.77792316 -81.42686794 50.6897028 -83.9375 45.25 C-84.2675 44.59 -84.5975 43.93 -84.9375 43.25 C-85.86114017 35.86087862 -85.3480424 29.94455637 -81.11328125 23.71875 C-78.44463871 20.69077498 -75.59006151 18.13685514 -72.4375 15.625 C-71.89198486 15.18655762 -71.34646973 14.74811523 -70.78442383 14.29638672 C-68.05183486 12.26487133 -66.09269897 11.27040614 -62.69921875 10.82421875 C-58.85182594 11.41738115 -57.49044504 13.4210609 -54.9375 16.25 C-53.9475 16.58 -52.9575 16.91 -51.9375 17.25 C-51.9375 14.28 -51.9375 11.31 -51.9375 8.25 C-41.40519269 7.65570053 -32.63428194 8.87235991 -23.9375 15.25 C-23.9375 15.91 -23.9375 16.57 -23.9375 17.25 C-23.23625 17.415 -22.535 17.58 -21.8125 17.75 C-16.1680496 20.69493064 -12.05740625 27.36137152 -9.9375 33.25 C-9.3965522 38.5650268 -9.36884829 43.43377804 -11.9375 48.25 C-7.48162168 47.6120858 -3.93603394 47.05369805 -0.375 44.1875 C2.2540307 38.81513291 1.53251687 32.94631538 0.0625 27.25 C1.3825 27.25 2.7025 27.25 4.0625 27.25 C3.5675 14.875 3.5675 14.875 3.0625 2.25 C1.4125 2.25 -0.2375 2.25 -1.9375 2.25 C-2.2675 8.19 -2.5975 14.13 -2.9375 20.25 C-4.2575 20.25 -5.5775 20.25 -6.9375 20.25 C-6.6075 18.93 -6.2775 17.61 -5.9375 16.25 C-5.4425 17.24 -5.4425 17.24 -4.9375 18.25 C-4.87691406 17.03441406 -4.81632812 15.81882812 -4.75390625 14.56640625 C-4.66951668 12.98175772 -4.5848679 11.39712298 -4.5 9.8125 C-4.46068359 9.01005859 -4.42136719 8.20761719 -4.38085938 7.38085938 C-3.99465027 0.33997024 -3.99465027 0.33997024 0 0 Z " fill="#3CAEE0" transform="translate(122.9375,36.75)"/>
<path d="M0 0 C6.61319534 4.04139715 6.61319534 4.04139715 8.4375 8.5625 C9 12 9 12 9 16 C10.0725 16.061875 11.145 16.12375 12.25 16.1875 C22.97035018 17.58662859 31.77092679 23.32409624 40 30 C40.59296875 30.46664062 41.1859375 30.93328125 41.796875 31.4140625 C44.40947771 33.68908171 44.98193082 34.80846666 45.3125 38.3125 C45.209375 39.199375 45.10625 40.08625 45 41 C46.32 41 47.64 41 49 41 C48.98839844 40.28714844 48.97679687 39.57429688 48.96484375 38.83984375 C48.91393974 33.43674634 49.05391729 28.32171525 50 23 C51.65 23 53.3 23 55 23 C55.94220126 28.52708611 56.12116149 33.83758352 56.0625 39.4375 C56.05798828 40.26443359 56.05347656 41.09136719 56.04882812 41.94335938 C56.03715811 43.96227146 56.01922718 45.98114574 56 48 C54.68 48 53.36 48 52 48 C52.495 48.9590625 52.495 48.9590625 53 49.9375 C54.51737009 54.58444591 55.17108864 59.26556488 53.1953125 63.87890625 C51.42556564 66.41147503 49.65802964 67.8349424 46.6640625 68.5859375 C44.42783479 68.84694831 42.25032661 68.99019466 40 69 C40.165 68.38125 40.33 67.7625 40.5 67.125 C41.85926309 58.62960572 41.26034057 52.95735948 36.80078125 45.421875 C34.27647526 42.02692985 31.57553529 40.21683188 28 38 C28 37.34 28 36.68 28 36 C27.2678125 35.71253906 26.535625 35.42507812 25.78125 35.12890625 C24.09851095 34.44588436 22.42702086 33.73267699 20.78125 32.96484375 C13.91914162 29.87454494 7.47737857 29.23440058 0 29 C0 31.97 0 34.94 0 38 C-1.32 37.67 -2.64 37.34 -4 37 C-4.495 35.515 -4.495 35.515 -5 34 C-4.01 34 -3.02 34 -2 34 C-2 30.37 -2 26.74 -2 23 C-1.01 22.67 -0.02 22.34 1 22 C2.83925655 17.81987147 2.68067215 11.93729767 1.1875 7.6875 C-0.06039061 5.91418176 -1.39683051 4.45742681 -3 3 C-2.01 3 -1.02 3 0 3 C0 2.01 0 1.02 0 0 Z " fill="#F0F3F4" transform="translate(71,16)"/>
<path d="M0 0 C2.89019954 1.59873164 5.13729507 3.25738095 7.375 5.6875 C7.045 6.3475 6.715 7.0075 6.375 7.6875 C5.385 6.6975 4.395 5.7075 3.375 4.6875 C2.385 5.6775 1.395 6.6675 0.375 7.6875 C1.014375 8.30625 1.65375 8.925 2.3125 9.5625 C5.54138397 12.88922893 5.59810073 15.10604943 5.53125 19.71875 C5.33808973 22.15256946 4.81806756 23.71277598 3.375 25.6875 C2.385 26.3475 1.395 27.0075 0.375 27.6875 C-0.20493699 29.88204681 -0.20493699 29.88204681 -0.3125 32.3125 C-0.41111328 33.53839844 -0.41111328 33.53839844 -0.51171875 34.7890625 C-0.54910156 35.41554687 -0.58648437 36.04203125 -0.625 36.6875 C-2.5625 36.3125 -2.5625 36.3125 -4.625 35.6875 C-4.955 35.0275 -5.285 34.3675 -5.625 33.6875 C-8.20710722 33.33098418 -8.20710722 33.33098418 -11.25 33.25 C-22.15697856 32.4358535 -22.15697856 32.4358535 -26.37890625 27.734375 C-29.04072134 24.10294281 -30.51389877 21.42817484 -31.1875 16.9375 C-30.36297634 12.17358552 -28.78354795 9.75458364 -25.25 6.5 C-20.58494019 3.27888727 -16.96784238 2.43820676 -11.3125 2.5625 C-10.24386719 2.58054687 -9.17523438 2.59859375 -8.07421875 2.6171875 C-7.26597656 2.64039063 -6.45773438 2.66359375 -5.625 2.6875 C-5.955 1.3675 -6.285 0.0475 -6.625 -1.3125 C-12.65400687 -0.80008893 -18.64504643 -0.242715 -24.625 0.6875 C-17.36199894 -4.15450071 -7.70338792 -3.77795019 0 0 Z " fill="#8E29C4" transform="translate(68.625,12.3125)"/>
<path d="M0 0 C0.6875 1.8125 0.6875 1.8125 1 4 C-0.3125 5.75 -0.3125 5.75 -2 7 C-2.66 7 -3.32 7 -4 7 C-4.144375 7.804375 -4.28875 8.60875 -4.4375 9.4375 C-5 12 -5 12 -6 13 C-5.57117078 15.51899681 -5.08833334 18.00110104 -4.5625 20.5 C-3.36791437 26.4457935 -2.67384183 31.91171418 -3 38 C-5.40201504 33.80120206 -5.15864149 30.75924459 -5 26 C-5.73863281 26.28875 -6.47726563 26.5775 -7.23828125 26.875 C-14.08162022 29.37929685 -20.67774355 31.33679353 -28 30 C-30.2734375 28.703125 -30.2734375 28.703125 -32 27 C-32.68317869 22.96924576 -32.83930714 20.55998429 -30.89453125 16.9453125 C-24.87408842 8.64904543 -18.73813128 2.29005242 -8.51953125 0.375 C-5.65103626 -0.05193879 -2.89552099 -0.15239584 0 0 Z " fill="#FAFAFA" transform="translate(47,108)"/>
<path d="M0 0 C1.98 0 3.96 0 6 0 C6 0.33 6 0.66 6 1 C4.35 1 2.7 1 1 1 C1.05220703 1.94746094 1.05220703 1.94746094 1.10546875 2.9140625 C1.49861213 15.90651524 -0.78650202 26.95487067 -9.55859375 36.73828125 C-16.05692215 43.01844035 -24.13658817 45.20875974 -33 45.5 C-42.58150183 45.17502565 -50.28440342 42.620179 -57.26953125 35.9375 C-59.95101856 32.9352027 -62.50195532 29.76557678 -64 26 C-63.505 24.515 -63.505 24.515 -63 23 C-61.68 23.66 -60.36 24.32 -59 25 C-59 25.66 -59 26.32 -59 27 C-58.484375 27.2475 -57.96875 27.495 -57.4375 27.75 C-55 29 -55 29 -51.875 30.9375 C-48.11622959 33.12739233 -44.2213663 34.25585413 -40.0390625 35.38671875 C-38 36 -38 36 -37 37 C-30.08007415 36.9497646 -22.24114947 36.16332233 -16 33 C-14.84194498 30.99160195 -14.84194498 30.99160195 -14 29 C-11.875 28.25 -11.875 28.25 -10 28 C-10 27.34 -10 26.68 -10 26 C-8.68 25.67 -7.36 25.34 -6 25 C-5.855625 24.401875 -5.71125 23.80375 -5.5625 23.1875 C-5.1127561 21.43849596 -4.57107659 19.71322977 -4 18 C-3.34 18 -2.68 18 -2 18 C-1.34 12.06 -0.68 6.12 0 0 Z " fill="#CCCCCC" transform="translate(108,123)"/>
<path d="M0 0 C1.32 0.33 2.64 0.66 4 1 C3.01 2.485 3.01 2.485 2 4 C3.299375 4.2165625 3.299375 4.2165625 4.625 4.4375 C6.70101761 4.78350293 8.77464936 5.14472714 10.84350586 5.53125 C13.92036602 5.98817409 16.7719638 6.09912707 19.87890625 6.0625 C20.96494141 6.05476563 22.05097656 6.04703125 23.16992188 6.0390625 C24.84924805 6.01972656 24.84924805 6.01972656 26.5625 6 C28.79291922 5.97440712 31.0233969 5.95340381 33.25390625 5.9375 C34.72839233 5.92009766 34.72839233 5.92009766 36.23266602 5.90234375 C38.93225689 5.99760942 41.37288125 6.39122987 44 7 C43.67 8.98 43.34 10.96 43 13 C30.82973127 16.93950895 17.33310459 17.82751522 5 14 C4.01 13.34 3.02 12.68 2 12 C1.8125 8.875 1.8125 8.875 2 6 C-5.18050184 5.28851735 -11.87028851 4.74181562 -19 6 C-17.8125 4.5 -17.8125 4.5 -16 3 C-13.3125 2.8125 -13.3125 2.8125 -11 3 C-11 2.34 -11 1.68 -11 1 C-9.54176788 0.9729957 -8.08339325 0.95360213 -6.625 0.9375 C-5.81289063 0.92589844 -5.00078125 0.91429688 -4.1640625 0.90234375 C-2 1 -2 1 0 2 C0 1.34 0 0.68 0 0 Z " fill="#CECED5" transform="translate(52,104)"/>
<path d="M0 0 C2 2 2 2 2.25 5.875 C2.16357075 9.05559626 1.92623463 11.36409999 0 14 C-0.99 14.66 -1.98 15.32 -3 16 C-3.57993699 18.19454681 -3.57993699 18.19454681 -3.6875 20.625 C-3.75324219 21.44226563 -3.81898437 22.25953125 -3.88671875 23.1015625 C-3.92410156 23.72804688 -3.96148437 24.35453125 -4 25 C-5.9375 24.625 -5.9375 24.625 -8 24 C-8.33 23.34 -8.66 22.68 -9 22 C-11.58210722 21.64348418 -11.58210722 21.64348418 -14.625 21.5625 C-25.29033756 20.7907496 -25.29033756 20.7907496 -29.56640625 16.38671875 C-30.97022898 14.60038301 -32.13193379 13.10234785 -33 11 C-32.625 8.77734375 -32.625 8.77734375 -32 7 C-31.13375 7.2784375 -31.13375 7.2784375 -30.25 7.5625 C-27.79307475 8.04023546 -26.35602466 7.75729364 -24 7 C-23.67 7.99 -23.34 8.98 -23 10 C-21.96939453 9.98259766 -21.96939453 9.98259766 -20.91796875 9.96484375 C-20.01691406 9.95582031 -19.11585937 9.94679688 -18.1875 9.9375 C-17.29417969 9.92589844 -16.40085937 9.91429687 -15.48046875 9.90234375 C-13 10 -13 10 -10 11 C-10 9.35 -10 7.7 -10 6 C-10.66 5.67 -11.32 5.34 -12 5 C-10.948125 5.020625 -9.89625 5.04125 -8.8125 5.0625 C-5.67295096 5.01103198 -3.03116604 4.73482813 0 4 C0 2.68 0 1.36 0 0 Z " fill="#AF439B" transform="translate(72,24)"/>
<path d="M0 0 C1.010625 0.0825 2.02125 0.165 3.0625 0.25 C5.28618846 3.58553269 5.36836819 4.9536833 5.5546875 8.87109375 C5.65330078 10.52141602 5.65330078 10.52141602 5.75390625 12.20507812 C5.87607572 14.52239897 5.99068837 16.84013084 6.09765625 19.15820312 C6.20013672 20.81045898 6.20013672 20.81045898 6.3046875 22.49609375 C6.3547998 23.50341553 6.40491211 24.5107373 6.45654297 25.54858398 C7.20437004 28.88247057 8.60967267 29.95408454 11.0625 32.25 C12.15502591 36.76577378 12.40028312 39.13109341 11.0625 43.5625 C8.40573582 47.13252687 6.23299281 47.83360622 2.0625 49.25 C2.0625 48.59 2.0625 47.93 2.0625 47.25 C1.27875 47.724375 0.495 48.19875 -0.3125 48.6875 C-4.3070151 50.40927375 -7.56731241 50.76936042 -11.86328125 51.0390625 C-13.92628303 51.02813693 -13.92628303 51.02813693 -14.9375 52.25 C-17.29063555 52.32271741 -19.64583668 52.33370868 -22 52.3125 C-23.29035156 52.30347656 -24.58070312 52.29445312 -25.91015625 52.28515625 C-26.90917969 52.27355469 -27.90820312 52.26195312 -28.9375 52.25 C-28.6075 50.6 -28.2775 48.95 -27.9375 47.25 C-27.29723877 47.26571045 -26.65697754 47.2814209 -25.99731445 47.29760742 C-23.08163369 47.36017115 -20.16609445 47.39905808 -17.25 47.4375 C-16.24259766 47.46263672 -15.23519531 47.48777344 -14.19726562 47.51367188 C-7.03095106 47.69186012 -7.03095106 47.69186012 -0.9375 44.25 C2.18750425 39.56249363 1.44944579 34.62004297 0.5625 29.1875 C0.3975 28.548125 0.2325 27.90875 0.0625 27.25 C1.3825 27.25 2.7025 27.25 4.0625 27.25 C3.5675 14.875 3.5675 14.875 3.0625 2.25 C1.4125 2.25 -0.2375 2.25 -1.9375 2.25 C-2.2675 8.19 -2.5975 14.13 -2.9375 20.25 C-4.2575 20.25 -5.5775 20.25 -6.9375 20.25 C-6.6075 18.93 -6.2775 17.61 -5.9375 16.25 C-5.6075 16.91 -5.2775 17.57 -4.9375 18.25 C-4.84662109 16.42662109 -4.84662109 16.42662109 -4.75390625 14.56640625 C-4.66951668 12.98175772 -4.5848679 11.39712298 -4.5 9.8125 C-4.46068359 9.01005859 -4.42136719 8.20761719 -4.38085938 7.38085938 C-3.99465027 0.33997024 -3.99465027 0.33997024 0 0 Z " fill="#6177E7" transform="translate(122.9375,36.75)"/>
<path d="M0 0 C8.25 0 16.5 0 25 0 C25 9 25 9 23.39453125 11.5 C18.71519908 14.43126191 13.39082278 14.29475945 8 14 C5.01815054 13.03224985 3.49967092 11.9883746 1 10 C0 8 0 8 0 0 Z " fill="#222889" transform="translate(62,129)"/>
<path d="M0 0 C10.53230731 -0.59429947 19.30321806 0.62235991 28 7 C28 7.66 28 8.32 28 9 C28.70125 9.165 29.4025 9.33 30.125 9.5 C34.27977348 11.6677079 36.62158605 15.01088799 39 19 C39.671875 21.2578125 39.671875 21.2578125 40 23 C39.01 23 38.02 23 37 23 C36.505 21.02 36.505 21.02 36 19 C35.34 19 34.68 19 34 19 C34 17.68 34 16.36 34 15 C33.01 15.33 32.02 15.66 31 16 C30.7525 15.21625 30.505 14.4325 30.25 13.625 C29.22155309 10.96448309 29.22155309 10.96448309 27.25 9.625 C24.25812191 8.79392275 21.99412677 9.31951664 19 10 C18.505 8.515 18.505 8.515 18 7 C18.66 6.67 19.32 6.34 20 6 C14.17521449 2.96098148 9.51791392 2.6459081 3 3 C2.855625 4.134375 2.71125 5.26875 2.5625 6.4375 C2 10 2 10 1 11 C-4.25770925 11.42400881 -4.25770925 11.42400881 -7 11 C-9 9 -9 9 -10 7 C-10.33 7.66 -10.66 8.32 -11 9 C-11.7425 8.95875 -12.485 8.9175 -13.25 8.875 C-16.93338384 9.04242654 -19.03432397 10.08083589 -21.703125 12.62109375 C-22.21359375 13.22050781 -22.7240625 13.81992187 -23.25 14.4375 C-23.77078125 15.03433594 -24.2915625 15.63117187 -24.828125 16.24609375 C-26.2777773 18.06417693 -26.2777773 18.06417693 -26 21 C-27.65 21.66 -29.3 22.32 -31 23 C-31 24.32 -31 25.64 -31 27 C-31.66 27 -32.32 27 -33 27 C-32.61595947 19.51120966 -28.53779053 14.29130198 -23.14453125 9.421875 C-15.39529481 3.17334966 -15.39529481 3.17334966 -10.79296875 2.6015625 C-6.90771319 3.15582273 -5.57213174 5.14979997 -3 8 C-2.01 8.33 -1.02 8.66 0 9 C0 6.03 0 3.06 0 0 Z " fill="#46DDDA" transform="translate(71,45)"/>
<path d="M0 0 C-0.89318557 4.55524641 -1.87643272 8.15617358 -5.73828125 11.1328125 C-11.05053341 13.16963457 -17.396559 12.32080769 -23 12 C-23 11.01 -23 10.02 -23 9 C-23.66 8.67 -24.32 8.34 -25 8 C-25.1875 4.625 -25.1875 4.625 -25 1 C-21.00055542 -1.66629639 -17.76642816 -1.51945174 -13.0625 -1.75 C-12.25103516 -1.80542969 -11.43957031 -1.86085938 -10.60351562 -1.91796875 C-9.81783203 -1.96050781 -9.03214844 -2.00304687 -8.22265625 -2.046875 C-7.50859619 -2.08651367 -6.79453613 -2.12615234 -6.05883789 -2.16699219 C-3.64817059 -1.97146314 -2.08193992 -1.1957028 0 0 Z " fill="#5DA6DC" transform="translate(89,76)"/>
<path d="M0 0 C1.99954746 -0.04254356 4.00041636 -0.04080783 6 0 C8.01481734 2.01481734 7.7214027 5.79076863 8.0625 8.5625 C8.15337891 9.27341797 8.24425781 9.98433594 8.33789062 10.71679688 C8.56239503 12.47738403 8.78168397 14.23863478 9 16 C9.66 15.67 10.32 15.34 11 15 C10.01 17.475 10.01 17.475 9 20 C8.01 20 7.02 20 6 20 C5.67 14.39 5.34 8.78 5 3 C3.35 2.67 1.7 2.34 0 2 C0 10.25 0 18.5 0 27 C0.99 27 1.98 27 3 27 C2.42415568 29.38564077 1.77772405 31.66682784 1 34 C0.92948886 36.73865287 0.90642235 39.45027588 0.9375 42.1875 C0.94201172 42.93708984 0.94652344 43.68667969 0.95117188 44.45898438 C0.96293646 46.30602383 0.98087135 48.15302213 1 50 C0.67 49.34 0.34 48.68 0 48 C-0.78375 47.731875 -1.5675 47.46375 -2.375 47.1875 C-5.82350962 45.62745994 -6.64598706 44.53547822 -8 41 C-8.14249951 37.85931072 -7.94120854 35.00363818 -7 32 C-6.00033203 30.98099609 -6.00033203 30.98099609 -4.98046875 29.94140625 C-1.91514565 25.38876662 -2.40169475 20.80648241 -2.375 15.4375 C-2.3494406 13.37357852 -2.31590475 11.30973657 -2.2734375 9.24609375 C-2.26747559 8.33529053 -2.26151367 7.4244873 -2.25537109 6.48608398 C-1.9878781 3.8819911 -1.31712888 2.24068945 0 0 Z " fill="#5B6FCE" transform="translate(24,37)"/>
<path d="M0 0 C0.33 0 0.66 0 1 0 C4.44419134 16.70842825 4.44419134 16.70842825 4 25 C1.59798496 20.80120206 1.84135851 17.75924459 2 13 C1.26136719 13.28875 0.52273437 13.5775 -0.23828125 13.875 C-7.04699744 16.36662676 -13.70999566 18.38797681 -21 17 C-22.80859375 15.47265625 -22.80859375 15.47265625 -24 14 C-23.18015625 13.74605469 -22.3603125 13.49210938 -21.515625 13.23046875 C-19.89914063 12.71419922 -19.89914063 12.71419922 -18.25 12.1875 C-17.18265625 11.85105469 -16.1153125 11.51460937 -15.015625 11.16796875 C-12.18328864 10.07098874 -10.32488512 8.90917719 -8 7 C-7.154375 6.525625 -6.30875 6.05125 -5.4375 5.5625 C-2.92930032 3.95467969 -1.67308934 2.42597955 0 0 Z " fill="#C1C1C1" transform="translate(40,121)"/>
<path d="M0 0 C2 2 2 2 2 5 C2.66 5.33 3.32 5.66 4 6 C5.66443509 8.0111924 6.90273736 9.7568434 7.875 12.1875 C8.89809093 14.28891703 8.89809093 14.28891703 11.625 14.75 C12.40875 14.8325 13.1925 14.915 14 15 C14.33 14.34 14.66 13.68 15 13 C15 14.32 15 15.64 15 17 C15.99 17 16.98 17 18 17 C18 17.66 18 18.32 18 19 C24.88533728 20.79217112 31.15181331 21.27887232 38.25 21.1875 C39.21679688 21.18685547 40.18359375 21.18621094 41.1796875 21.18554688 C45.61066494 21.15808214 49.66112154 20.97048765 54 20 C54.144375 19.38125 54.28875 18.7625 54.4375 18.125 C55 16 55 16 56 14 C59.63 14 63.26 14 67 14 C63.12210184 18.48381974 59.63482904 20.31345082 54 22 C52.94683594 22.34933594 51.89367187 22.69867188 50.80859375 23.05859375 C37.81728175 26.26977959 23.20497049 24.58925971 11.28125 18.64453125 C6.14263827 15.53300175 3.3312536 12.5367273 1 7 C0.46346353 4.63183902 0.19844319 2.43092912 0 0 Z " fill="#6283DD" transform="translate(38,75)"/>
<path d="M0 0 C-0.875 6.75 -0.875 6.75 -2 9 C-1.01 8.67 -0.02 8.34 1 8 C4.727849 7.72386304 7.3783699 7.75675344 10.875 9.125 C13 11 13 11 14 13.8125 C14 17.62264755 12.92960645 19.75826116 11 23 C9.68374806 20.36749612 10.25186342 19.19820944 10.9375 16.375 C11.13214844 15.55773437 11.32679688 14.74046875 11.52734375 13.8984375 C11.76130859 12.95871094 11.76130859 12.95871094 12 12 C11.34 12 10.68 12 10 12 C10 11.34 10 10.68 10 10 C8.10388566 10.14213297 6.20811606 10.28886907 4.3125 10.4375 C3.25675781 10.51871094 2.20101562 10.59992188 1.11328125 10.68359375 C-1.66712916 10.96616997 -4.29931563 11.28111279 -7 12 C-8.12516085 13.83284443 -8.12516085 13.83284443 -9 16 C-11.92375726 19.34143687 -15.26607042 21.623863 -19 24 C-19.66 23.67 -20.32 23.34 -21 23 C-20.67 22.34 -20.34 21.68 -20 21 C-20.66 20.67 -21.32 20.34 -22 20 C-21.31292969 19.60167969 -20.62585938 19.20335938 -19.91796875 18.79296875 C-18.56638672 17.99826172 -18.56638672 17.99826172 -17.1875 17.1875 C-16.29417969 16.66542969 -15.40085937 16.14335938 -14.48046875 15.60546875 C-12.01198722 14.13059348 -12.01198722 14.13059348 -10.30078125 12.30078125 C-9.87152344 11.87152344 -9.44226563 11.44226563 -9 11 C-8.34 11 -7.68 11 -7 11 C-7 10.34 -7 9.68 -7 9 C-6.34 9 -5.68 9 -5 9 C-5 8.34 -5 7.68 -5 7 C-6.04800781 6.92652344 -6.04800781 6.92652344 -7.1171875 6.8515625 C-8.02726562 6.77679688 -8.93734375 6.70203125 -9.875 6.625 C-10.77992187 6.55539063 -11.68484375 6.48578125 -12.6171875 6.4140625 C-15 6 -15 6 -17 4 C-15.01230506 2.01230506 -11.23809632 2.5660126 -8.54296875 2.37890625 C-5.42383149 1.91415001 -3.09023735 0 0 0 Z " fill="#AFAFAF" transform="translate(125,84)"/>
<path d="M0 0 C1.65 0 3.3 0 5 0 C5.94220126 5.52708611 6.12116149 10.83758352 6.0625 16.4375 C6.05798828 17.26443359 6.05347656 18.09136719 6.04882812 18.94335938 C6.03715811 20.96227146 6.01922718 22.98114574 6 25 C4.68 25 3.36 25 2 25 C2.350625 25.7425 2.70125 26.485 3.0625 27.25 C4.04509293 30.1322726 4.0326802 31.21176345 3 34 C3 33.01 3 32.02 3 31 C2.34 31 1.68 31 1 31 C0.87882812 30.39671875 0.75765625 29.7934375 0.6328125 29.171875 C0.46523437 28.37265625 0.29765625 27.5734375 0.125 26.75 C-0.03742188 25.96109375 -0.19984375 25.1721875 -0.3671875 24.359375 C-0.99150075 22.03168856 -1.84838542 20.10968048 -3 18 C-2.34 18 -1.68 18 -1 18 C-1.01160156 17.28714844 -1.02320312 16.57429688 -1.03515625 15.83984375 C-1.08606026 10.43674634 -0.94608271 5.32171525 0 0 Z " fill="#DFE0E3" transform="translate(121,39)"/>
<path d="M0 0 C0.33 0.66 0.66 1.32 1 2 C0.360625 2.474375 -0.27875 2.94875 -0.9375 3.4375 C-3.84850272 7.05420035 -3.80649782 10.47204894 -4 15 C-5.9375 14.625 -5.9375 14.625 -8 14 C-8.33 13.34 -8.66 12.68 -9 12 C-11.64874183 11.60562785 -11.64874183 11.60562785 -14.75 11.5 C-18.94937359 11.29313431 -22.16686884 10.76040097 -26 9 C-26 7.68 -26 6.36 -26 5 C-21.545 4.505 -21.545 4.505 -17 4 C-17 4.66 -17 5.32 -17 6 C-13.44219804 5.39009109 -10.3171411 4.4216319 -7 3 C-7 2.34 -7 1.68 -7 1 C-3.535 0.505 -3.535 0.505 0 0 Z " fill="#C94F80" transform="translate(72,34)"/>
<path d="M0 0 C0.66 1.65 1.32 3.3 2 5 C0.7315625 4.93039062 0.7315625 4.93039062 -0.5625 4.859375 C-8.72144185 4.5997723 -14.1764427 5.22404106 -20.63671875 10.28125 C-22.51214869 12.64568889 -22.73439493 14.72488994 -23.1875 17.6875 C-23.34605469 18.68136719 -23.50460938 19.67523437 -23.66796875 20.69921875 C-23.77753906 21.45847656 -23.88710938 22.21773437 -24 23 C-24.99 23.33 -25.98 23.66 -27 24 C-27.38507239 17.83884173 -27.16066889 12.44205396 -24 7 C-17.03420527 -0.28242177 -9.48342627 -0.30868295 0 0 Z " fill="#F6EDFC" transform="translate(62,11)"/>
<path d="M0 0 C1.010625 0.0825 2.02125 0.165 3.0625 0.25 C5.28618846 3.58553269 5.36836819 4.9536833 5.5546875 8.87109375 C5.65330078 10.52141602 5.65330078 10.52141602 5.75390625 12.20507812 C5.87607572 14.52239897 5.99068837 16.84013084 6.09765625 19.15820312 C6.16597656 20.25970703 6.23429688 21.36121094 6.3046875 22.49609375 C6.3547998 23.50341553 6.40491211 24.5107373 6.45654297 25.54858398 C7.20437004 28.88247057 8.60967267 29.95408454 11.0625 32.25 C12.23331766 37.08937965 12.52332859 39.12798256 10.625 43.75 C10.109375 44.575 9.59375 45.4 9.0625 46.25 C8.4025 45.92 7.7425 45.59 7.0625 45.25 C7.3925 44.59 7.7225 43.93 8.0625 43.25 C8.13200541 41.70976004 8.14702357 40.16665012 8.125 38.625 C8.11597656 37.80773437 8.10695312 36.99046875 8.09765625 36.1484375 C8.08605469 35.52195313 8.07445312 34.89546875 8.0625 34.25 C7.258125 33.981875 6.45375 33.71375 5.625 33.4375 C4.779375 33.045625 3.93375 32.65375 3.0625 32.25 C2.7325 31.26 2.4025 30.27 2.0625 29.25 C2.7225 29.25 3.3825 29.25 4.0625 29.25 C3.7325 20.34 3.4025 11.43 3.0625 2.25 C1.4125 2.25 -0.2375 2.25 -1.9375 2.25 C-2.2675 8.19 -2.5975 14.13 -2.9375 20.25 C-4.2575 20.25 -5.5775 20.25 -6.9375 20.25 C-6.6075 18.93 -6.2775 17.61 -5.9375 16.25 C-5.6075 16.91 -5.2775 17.57 -4.9375 18.25 C-4.87691406 17.03441406 -4.81632812 15.81882812 -4.75390625 14.56640625 C-4.66951668 12.98175772 -4.5848679 11.39712298 -4.5 9.8125 C-4.44102539 8.60883789 -4.44102539 8.60883789 -4.38085938 7.38085938 C-3.99465027 0.33997024 -3.99465027 0.33997024 0 0 Z " fill="#3D4570" transform="translate(122.9375,36.75)"/>
<path d="M0 0 C0.99 0.66 1.98 1.32 3 2 C3 3.32 3 4.64 3 6 C-0.77307286 7.74028827 -3.74322253 8.25635617 -7.88671875 8.265625 C-9.5409082 8.26949219 -9.5409082 8.26949219 -11.22851562 8.2734375 C-12.36998047 8.26570313 -13.51144531 8.25796875 -14.6875 8.25 C-15.84056641 8.25773437 -16.99363281 8.26546875 -18.18164062 8.2734375 C-19.8300293 8.26957031 -19.8300293 8.26957031 -21.51171875 8.265625 C-22.51678467 8.26336914 -23.52185059 8.26111328 -24.55737305 8.25878906 C-27 8 -27 8 -29 6 C-29 4.68 -29 3.36 -29 2 C-24.01731555 1.83109544 -20.57777956 1.8457508 -16 4 C-13.9254644 4.1490712 -13.9254644 4.1490712 -12 3 C-12 3.66 -12 4.32 -12 5 C-11.13375 4.505 -10.2675 4.01 -9.375 3.5 C-5.89250377 1.9522239 -3.75240542 1.73197104 0 2 C0 1.34 0 0.68 0 0 Z " fill="#982FB9" transform="translate(69,22)"/>
<path d="M0 0 C0.33 0 0.66 0 1 0 C1.07476562 0.68707031 1.14953125 1.37414062 1.2265625 2.08203125 C1.98688826 7.75256827 1.98688826 7.75256827 5.3125 12.1875 C10.89026429 13.41649891 16.41228886 13.1787161 22 12 C24.35012585 10.39854293 24.88427333 9.51149421 25.51171875 6.73828125 C25.56972656 5.93777344 25.62773438 5.13726562 25.6875 4.3125 C25.75324219 3.50425781 25.81898437 2.69601563 25.88671875 1.86328125 C25.92410156 1.24839844 25.96148437 0.63351563 26 0 C26.33 0 26.66 0 27 0 C27.34214193 4.38448551 27.49831759 8.62347158 27 13 C23.80117987 16.70389699 20.66877587 17.19892976 16 17.8125 C12.18607668 18.06599339 8.74171773 17.88619631 5 17 C5 16.34 5 15.68 5 15 C4.38125 14.87625 3.7625 14.7525 3.125 14.625 C1 14 1 14 -1 12 C-1.23046875 9.43359375 -1.23046875 9.43359375 -1.1875 6.4375 C-1.18105469 5.44621094 -1.17460938 4.45492187 -1.16796875 3.43359375 C-1 1 -1 1 0 0 Z " fill="#7FC2D7" transform="translate(61,129)"/>
<path d="M0 0 C1.98 0 3.96 0 6 0 C6 0.33 6 0.66 6 1 C4.35 1 2.7 1 1 1 C1.05220703 1.94746094 1.05220703 1.94746094 1.10546875 2.9140625 C1.49861213 15.90651524 -0.78650202 26.95487067 -9.55859375 36.73828125 C-16.10905983 43.06882761 -24.19339196 45.21589592 -33.125 45.4375 C-38.97705091 45.27637525 -43.60739187 44.23142405 -49 42 C-45.25 40.875 -45.25 40.875 -43 42 C-40.09432325 42.09928946 -37.21778778 42.13886772 -34.3125 42.125 C-33.52166016 42.12886719 -32.73082031 42.13273437 -31.91601562 42.13671875 C-27.17310057 42.12888569 -22.67730943 41.78894376 -18 41 C-17.67 39.68 -17.34 38.36 -17 37 C-16.24976563 36.91492188 -15.49953125 36.82984375 -14.7265625 36.7421875 C-9.76877632 35.39264685 -7.53614984 31.24789366 -5 27 C-1.46050007 18.58208819 -0.96034227 9.00462103 0 0 Z " fill="#656464" transform="translate(108,123)"/>
<path d="M0 0 C6.27 0 12.54 0 19 0 C18 5 18 5 17 7 C13.25543093 8.49782763 8.95925294 8.57232765 5 8 C2 6.25 2 6.25 0 4 C0 2.68 0 1.36 0 0 Z " fill="#D4EEFC" transform="translate(65,77)"/>
<path d="M0 0 C0.65742187 0.0721875 1.31484375 0.144375 1.9921875 0.21875 C14.22414326 1.41211154 26.81231901 1.80558237 39 0 C38.25 1.9375 38.25 1.9375 37 4 C31.74251113 5.89731006 25.68912066 5.18448211 20.1875 5.1875 C19.02412109 5.19974609 17.86074219 5.21199219 16.66210938 5.22460938 C10.72051209 5.23475439 5.59528648 5.06658026 0 3 C0 2.01 0 1.02 0 0 Z " fill="#263B83" transform="translate(55,112)"/>
<path d="M0 0 C1.32 0.33 2.64 0.66 4 1 C3.01 1 2.02 1 1 1 C1 1.99 1 2.98 1 4 C7.69377774 5.21971169 14.33588671 5.18372407 21.125 5.1875 C22.87490234 5.20586914 22.87490234 5.20586914 24.66015625 5.22460938 C25.78550781 5.22654297 26.91085938 5.22847656 28.0703125 5.23046875 C29.08883301 5.23457764 30.10735352 5.23868652 31.15673828 5.24291992 C34.16254806 4.98611237 36.31477465 4.36055804 39 3 C39.33 2.34 39.66 1.68 40 1 C39.34 0.67 38.68 0.34 38 0 C39.32 0 40.64 0 42 0 C41.67 1.98 41.34 3.96 41 6 C28.82973127 9.93950895 15.33310459 10.82751522 3 7 C2.01 6.34 1.02 5.68 0 5 C-0.1875 2.375 -0.1875 2.375 0 0 Z " fill="#8ECED9" transform="translate(54,111)"/>
<path d="M0 0 C0.66 0 1.32 0 2 0 C0.76379855 8.65341018 -2.87642348 13.87642348 -9 20 C-12.125 20.125 -12.125 20.125 -15 20 C-15 19.34 -15 18.68 -15 18 C-17.31 18.33 -19.62 18.66 -22 19 C-19.76999359 16.76999359 -18.99173512 16.66395228 -16 16.125 C-13.86371453 15.6879805 -13.86371453 15.6879805 -12 15 C-10.71563266 13.0162233 -10.71563266 13.0162233 -10 11 C-7.875 10.25 -7.875 10.25 -6 10 C-6 9.34 -6 8.68 -6 8 C-4.68 7.67 -3.36 7.34 -2 7 C-1.855625 6.401875 -1.71125 5.80375 -1.5625 5.1875 C-1.1127561 3.43849596 -0.57107659 1.71322977 0 0 Z " fill="#D4D3D4" transform="translate(104,141)"/>
<path d="M0 0 C1.99954746 -0.04254356 4.00041636 -0.04080783 6 0 C8.01481734 2.01481734 7.7214027 5.79076863 8.0625 8.5625 C8.15337891 9.27341797 8.24425781 9.98433594 8.33789062 10.71679688 C8.56239503 12.47738403 8.78168397 14.23863478 9 16 C9.66 15.67 10.32 15.34 11 15 C10.01 17.475 10.01 17.475 9 20 C8.01 20 7.02 20 6 20 C5.67 14.39 5.34 8.78 5 3 C3.35 2.67 1.7 2.34 0 2 C-0.0093457 2.79696289 -0.01869141 3.59392578 -0.02832031 4.41503906 C-0.08201498 8.02732175 -0.16566608 11.63830821 -0.25 15.25 C-0.27126953 17.13138672 -0.27126953 17.13138672 -0.29296875 19.05078125 C-0.32519531 20.25605469 -0.35742188 21.46132813 -0.390625 22.703125 C-0.41157227 23.81333008 -0.43251953 24.92353516 -0.45410156 26.06738281 C-1.11603877 29.62337105 -2.40718889 30.5904804 -5 33 C-5.64366259 38.70101153 -5.00539066 41.99101557 -2 47 C-4.39795018 46.04081993 -5.73961235 45.41109146 -7.140625 43.19921875 C-8.11149121 40.71468386 -8.15848836 39.20077073 -7.875 36.5625 C-7.81054688 35.82128906 -7.74609375 35.08007812 -7.6796875 34.31640625 C-7 32 -7 32 -4.984375 29.9375 C-1.91176933 25.38907586 -2.40169431 20.80639285 -2.375 15.4375 C-2.3494406 13.37357852 -2.31590475 11.30973657 -2.2734375 9.24609375 C-2.26747559 8.33529053 -2.26151367 7.4244873 -2.25537109 6.48608398 C-1.9878781 3.8819911 -1.31712888 2.24068945 0 0 Z " fill="#28304F" transform="translate(24,37)"/>
<path d="M0 0 C1.13566406 -0.00515625 2.27132812 -0.0103125 3.44140625 -0.015625 C6.4375 0.25 6.4375 0.25 9.4375 2.25 C9.1075 3.24 8.7775 4.23 8.4375 5.25 C1.6543636 6.67002108 -4.62947907 7.47731216 -11.5625 7.25 C-11.3125 4.875 -11.3125 4.875 -10.5625 2.25 C-7.19727266 -0.11128123 -4.01740366 -0.0182817 0 0 Z " fill="#822CD2" transform="translate(55.5625,15.75)"/>
<path d="M0 0 C0.66 0.33 1.32 0.66 2 1 C1.34 2.32 0.68 3.64 0 5 C-0.99 5 -1.98 5 -3 5 C-2.34 6.65 -1.68 8.3 -1 10 C0.66289063 9.98259766 0.66289063 9.98259766 2.359375 9.96484375 C3.82291498 9.95546208 5.28645678 9.94636229 6.75 9.9375 C7.47960938 9.92912109 8.20921875 9.92074219 8.9609375 9.91210938 C12.48670558 9.89608316 15.61034916 10.04707287 19 11 C19 12.65 19 14.3 19 16 C16.8535247 15.88655624 14.70779408 15.75893655 12.5625 15.625 C11.36753906 15.55539063 10.17257813 15.48578125 8.94140625 15.4140625 C7.97074219 15.27742188 7.00007813 15.14078125 6 15 C5.67 14.34 5.34 13.68 5 13 C4.2575 13.165 3.515 13.33 2.75 13.5 C0.10796629 13.98036977 -2.30754161 14 -5 14 C-5.29557392 8.97524332 -5.0282379 6.07647409 -2 2 C-1.34 1.34 -0.68 0.68 0 0 Z " fill="#A33EAD" transform="translate(43,19)"/>
<path d="M0 0 C-2.63904371 1.41377341 -5.07120629 2.37240135 -8 3 C-8.103125 3.639375 -8.20625 4.27875 -8.3125 4.9375 C-8.539375 5.618125 -8.76625 6.29875 -9 7 C-9.99 7.33 -10.98 7.66 -12 8 C-13.6602855 9.52238593 -13.6602855 9.52238593 -15.1875 11.375 C-15.98220703 12.28378906 -15.98220703 12.28378906 -16.79296875 13.2109375 C-18.27964316 15.05479338 -18.27964316 15.05479338 -18 18 C-19.65 18.66 -21.3 19.32 -23 20 C-23 21.32 -23 22.64 -23 24 C-23.66 24 -24.32 24 -25 24 C-24.61595947 16.51120966 -20.53779053 11.29130198 -15.14453125 6.421875 C-6.43243798 -0.60304106 -6.43243798 -0.60304106 0 0 Z " fill="#57D7DC" transform="translate(63,48)"/>
<path d="M0 0 C2.89019954 1.59873164 5.13729507 3.25738095 7.375 5.6875 C7.045 6.3475 6.715 7.0075 6.375 7.6875 C5.385 6.6975 4.395 5.7075 3.375 4.6875 C3.045 5.3475 2.715 6.0075 2.375 6.6875 C1.116875 6.378125 -0.14125 6.06875 -1.4375 5.75 C-6.79565177 4.54697548 -12.1554832 4.07598904 -17.625 3.6875 C-17.625 3.3575 -17.625 3.0275 -17.625 2.6875 C-13.665 2.6875 -9.705 2.6875 -5.625 2.6875 C-5.955 1.3675 -6.285 0.0475 -6.625 -1.3125 C-12.65400687 -0.80008893 -18.64504643 -0.242715 -24.625 0.6875 C-17.36199894 -4.15450071 -7.70338792 -3.77795019 0 0 Z " fill="#948C9D" transform="translate(68.625,12.3125)"/>
<path d="M0 0 C-1.4036827 2.80736541 -3.10783413 2.96708362 -6 4 C-6.99 4.33 -7.98 4.66 -9 5 C-9.66 4.67 -10.32 4.34 -11 4 C-11 3.34 -11 2.68 -11 2 C-15.455 2.495 -15.455 2.495 -20 3 C-20 3.99 -20 4.98 -20 6 C-20.66 6 -21.32 6 -22 6 C-23.38938077 4.03852126 -24.7260411 2.03833424 -26 0 C-19.07537682 -3.46231159 -7.52307134 -0.84427254 0 0 Z " fill="#C04992" transform="translate(66,36)"/>
<path d="M0 0 C1.051875 0.185625 2.10375 0.37125 3.1875 0.5625 C6.57119882 0.95079331 8.76425888 0.88247485 12 0 C11.67 0.99 11.34 1.98 11 3 C7.4375 4.1875 7.4375 4.1875 4 5 C4 6.65 4 8.3 4 10 C3.01 10.495 3.01 10.495 2 11 C2.33 9.35 2.66 7.7 3 6 C-6.9 6 -16.8 6 -27 6 C-27 5.67 -27 5.34 -27 5 C-25.70964844 4.95101562 -24.41929688 4.90203125 -23.08984375 4.8515625 C-21.37237653 4.77648197 -19.65492959 4.70093646 -17.9375 4.625 C-17.08994141 4.5940625 -16.24238281 4.563125 -15.36914062 4.53125 C-10.27919187 4.29542226 -5.79675549 3.77091371 -1 2 C-0.67 1.34 -0.34 0.68 0 0 Z " fill="#D9DADB" transform="translate(93,105)"/>
<path d="M0 0 C2.14576637 -0.02685938 4.29162645 -0.04633088 6.4375 -0.0625 C7.63246094 -0.07410156 8.82742187 -0.08570312 10.05859375 -0.09765625 C13 0 13 0 14 1 C15.34747084 1.23075082 16.70377565 1.41153063 18.0625 1.5625 C19.361875 1.706875 20.66125 1.85125 22 2 C22 2.33 22 2.66 22 3 C19.94921875 3.22786458 17.8984375 3.45572917 15.84765625 3.68359375 C13.98859771 3.81886614 13.98859771 3.81886614 13 5 C10.64686445 5.07271741 8.29166332 5.08370868 5.9375 5.0625 C4.64714844 5.05347656 3.35679688 5.04445313 2.02734375 5.03515625 C1.02832031 5.02355469 0.02929688 5.01195313 -1 5 C-0.67 3.35 -0.34 1.7 0 0 Z " fill="#22359A" transform="translate(95,84)"/>
<path d="M0 0 C3.3 0 6.6 0 10 0 C8 2 8 2 4.875 2.125 C3.92625 2.08375 2.9775 2.0425 2 2 C1.855625 3.134375 1.71125 4.26875 1.5625 5.4375 C1 9 1 9 0 10 C-5.25770925 10.42400881 -5.25770925 10.42400881 -8 10 C-10 8 -10 8 -11 6 C-11.33 6.66 -11.66 7.32 -12 8 C-13.65 7.67 -15.3 7.34 -17 7 C-17 6.34 -17 5.68 -17 5 C-13.88229079 3.15246862 -11.61884589 2.45717312 -8 3 C-6.62689293 4.29233607 -5.28965176 5.62437146 -4 7 C-3.01 7 -2.02 7 -1 7 C-0.67 4.69 -0.34 2.38 0 0 Z " fill="#37DAD7" transform="translate(72,46)"/>
<path d="M0 0 C0.66 0.33 1.32 0.66 2 1 C0.576875 2.0209375 0.576875 2.0209375 -0.875 3.0625 C-5.08218056 6.62471185 -5.67068636 10.27713843 -6.3203125 15.6484375 C-6.64951309 20.87270781 -6.49293023 24.1261448 -3 28.1875 C-2.02512086 29.15109582 -1.03310325 30.09910937 0 31 C-0.33 31.66 -0.66 32.32 -1 33 C-9.95040546 23.57096323 -9.95040546 23.57096323 -10.0234375 16.83984375 C-9.68826967 11.55654025 -8.46721406 8.14139457 -5 4 C-2.25 1.625 -2.25 1.625 0 0 Z " fill="#787A78" transform="translate(42,13)"/>
<path d="M0 0 C1.32 0.33 2.64 0.66 4 1 C3.01 2.485 3.01 2.485 2 4 C3.32 4 4.64 4 6 4 C6 4.66 6 5.32 6 6 C3.18632643 7.12546943 2.03905599 7.01358469 -0.875 6 C-6.68550526 4.08444881 -13.03362546 5.38763978 -19 6 C-16.3359375 3.0234375 -16.3359375 3.0234375 -13.3125 2.8125 C-12.549375 2.874375 -11.78625 2.93625 -11 3 C-11 2.34 -11 1.68 -11 1 C-9.54176788 0.9729957 -8.08339325 0.95360213 -6.625 0.9375 C-5.81289063 0.92589844 -5.00078125 0.91429688 -4.1640625 0.90234375 C-2 1 -2 1 0 2 C0 1.34 0 0.68 0 0 Z " fill="#D8D6D9" transform="translate(52,104)"/>
<path d="M0 0 C2.475 0.99 2.475 0.99 5 2 C5 2.66 5 3.32 5 4 C5.5775 4.2475 6.155 4.495 6.75 4.75 C9.3002997 6.16683317 11.01785701 7.87627537 13 10 C12.01 10.99 11.02 11.98 10 13 C10.99 14.485 10.99 14.485 12 16 C8.46735557 14.5417119 6.64017606 12.69176737 4.3125 9.6875 C3.71050781 8.92824219 3.10851563 8.16898438 2.48828125 7.38671875 C0.91884486 4.86985358 0.38752818 2.91937893 0 0 Z " fill="#9C9C9C" transform="translate(44,146)"/>
<path d="M0 0 C0.66 0.33 1.32 0.66 2 1 C1.54109375 1.51949219 1.0821875 2.03898437 0.609375 2.57421875 C-0.00421875 3.27160156 -0.6178125 3.96898438 -1.25 4.6875 C-1.89195313 5.41582031 -2.53390625 6.14414063 -3.1953125 6.89453125 C-4.57153944 8.50012935 -5.86804266 10.17441066 -7.125 11.875 C-9.24709727 14.28004357 -10.96237025 15.07183535 -14 16 C-14.33 18.97 -14.66 21.94 -15 25 C-15.33 25 -15.66 25 -16 25 C-16.53881857 19.97102666 -16.48672682 17.07053689 -13.4375 12.9375 C-9.43046482 8.12336058 -5.22543652 3.48362435 0 0 Z " fill="#ACACAC" transform="translate(31,110)"/>
<path d="M0 0 C1.65 0 3.3 0 5 0 C5 3.63 5 7.26 5 11 C3.02 11 1.04 11 -1 11 C-1.02688151 9.35425434 -1.04634123 7.70838587 -1.0625 6.0625 C-1.07410156 5.14597656 -1.08570313 4.22945313 -1.09765625 3.28515625 C-1 1 -1 1 0 0 Z " fill="#1A3591" transform="translate(56,66)"/>
<path d="M0 0 C8.58236341 -0.44519464 16.46608677 -0.65421499 24 4 C24.99 5.485 24.99 5.485 26 7 C24.18641846 6.52494322 22.37415821 6.04483958 20.5625 5.5625 C19.55316406 5.29566406 18.54382813 5.02882813 17.50390625 4.75390625 C15 4 15 4 14 3 C11.81707226 2.76518307 9.62796826 2.58636677 7.4375 2.4375 C5.64119141 2.31181641 5.64119141 2.31181641 3.80859375 2.18359375 C2.88175781 2.12300781 1.95492187 2.06242187 1 2 C1 4.97 1 7.94 1 11 C0.01 10.67 -0.98 10.34 -2 10 C-1.34 10 -0.68 10 0 10 C0 6.7 0 3.4 0 0 Z " fill="#C5FBFA" transform="translate(70,43)"/>
<path d="M0 0 C0.33 0 0.66 0 1 0 C1 5.94 1 11.88 1 18 C1.99 18 2.98 18 4 18 C3.42415568 20.38564077 2.77772405 22.66682784 2 25 C1.93062938 27.22818441 1.91542916 29.45834524 1.9375 31.6875 C1.94652344 32.86699219 1.95554687 34.04648438 1.96484375 35.26171875 C1.97644531 36.16535156 1.98804688 37.06898437 2 38 C1.34 37.67 0.68 37.34 0 37 C0 32.71 0 28.42 0 24 C-0.99 23.67 -1.98 23.34 -3 23 C-2.01 21.515 -2.01 21.515 -1 20 C-0.6349209 17.77868577 -0.6349209 17.77868577 -0.5859375 15.33203125 C-0.54726563 14.43935547 -0.50859375 13.54667969 -0.46875 12.62695312 C-0.4378125 11.69818359 -0.406875 10.76941406 -0.375 9.8125 C-0.33632813 8.87212891 -0.29765625 7.93175781 -0.2578125 6.96289062 C-0.16356813 4.6421229 -0.07795975 2.32136252 0 0 Z " fill="#8893CD" transform="translate(23,46)"/>
<path d="M0 0 C1.03833984 0.09087891 1.03833984 0.09087891 2.09765625 0.18359375 C10.39281313 0.89398268 18.69191272 1.46655724 27 2 C27 2.33 27 2.66 27 3 C20.565 3.495 20.565 3.495 14 4 C14 4.33 14 4.66 14 5 C8.80790596 5.21192221 4.873261 4.5912689 0 3 C0 2.01 0 1.02 0 0 Z " fill="#39498E" transform="translate(55,112)"/>
<path d="M0 0 C0 0.66 0 1.32 0 2 C1.32 2.33 2.64 2.66 4 3 C1.94766315 5.2477975 0.99332739 6.0022242 -2 7 C-2 6.34 -2 5.68 -2 5 C-2.78375 5.515625 -3.5675 6.03125 -4.375 6.5625 C-9.2019651 8.47664133 -12.96829548 7.82535865 -18 7 C-18 6.67 -18 6.34 -18 6 C-17.26394531 5.90203125 -16.52789062 5.8040625 -15.76953125 5.703125 C-10.36692885 4.87524934 -4.35933316 0 0 0 Z " fill="#7171A3" transform="translate(127,79)"/>
<path d="M0 0 C3 0.125 3 0.125 4 1.125 C4.39943176 3.64695967 4.75079848 6.15463656 5.0625 8.6875 C5.15337891 9.39841797 5.24425781 10.10933594 5.33789062 10.84179688 C5.56239503 12.60238403 5.78168397 14.36363478 6 16.125 C6.66 15.795 7.32 15.465 8 15.125 C7.01 17.6 7.01 17.6 6 20.125 C5.01 20.125 4.02 20.125 3 20.125 C2.67 14.515 2.34 8.905 2 3.125 C0.35 2.795 -1.3 2.465 -3 2.125 C-3 4.435 -3 6.745 -3 9.125 C-3.33 9.125 -3.66 9.125 -4 9.125 C-4.09765625 2.97265625 -4.09765625 2.97265625 -4 1.125 C-3 0.125 -3 0.125 0 0 Z " fill="#60615F" transform="translate(27,36.875)"/>
<path d="M0 0 C0.66 0 1.32 0 2 0 C0.89205725 7.75559925 -1.84104985 12.16514462 -7 18 C-7.33 17.34 -7.66 16.68 -8 16 C-8.66 15.67 -9.32 15.34 -10 15 C-9.195625 14.236875 -8.39125 13.47375 -7.5625 12.6875 C-4.83200976 10.20569102 -4.83200976 10.20569102 -4 7 C-3.34 7 -2.68 7 -2 7 C-1.855625 6.401875 -1.71125 5.80375 -1.5625 5.1875 C-1.1127561 3.43849596 -0.57107659 1.71322977 0 0 Z " fill="#CFCFCF" transform="translate(104,141)"/>
<path d="M0 0 C2.04219706 1.69179328 2.91793306 2.63727666 3.51171875 5.26171875 C3.56972656 6.06222656 3.62773438 6.86273438 3.6875 7.6875 C3.75324219 8.49574219 3.81898437 9.30398437 3.88671875 10.13671875 C3.92410156 10.75160156 3.96148437 11.36648437 4 12 C5.11375 12.0825 6.2275 12.165 7.375 12.25 C12.6151219 12.87919026 17.20241234 14.88630871 22 17 C18.82184788 18.05703507 17.23251613 17.97696236 14.1875 16.625 C10.41621988 15.07544963 7.04755549 14.42162036 3 14 C1.56976822 9.32790951 0.59619955 4.86896303 0 0 Z " fill="#606161" transform="translate(76,20)"/>
<path d="M0 0 C0 0.66 0 1.32 0 2 C-0.969375 2.28875 -1.93875 2.5775 -2.9375 2.875 C-6.10664203 3.64214682 -6.10664203 3.64214682 -7 6 C-4.69 6.33 -2.38 6.66 0 7 C0 7.99 0 8.98 0 10 C-1.45903258 9.69078116 -2.91720722 9.37751201 -4.375 9.0625 C-5.18710938 8.88847656 -5.99921875 8.71445313 -6.8359375 8.53515625 C-9 8 -9 8 -11 7 C-10.875 5.1875 -10.875 5.1875 -10 3 C-6.32115375 0.71094011 -4.38448044 0 0 0 Z " fill="#1C5EA7" transform="translate(98,66)"/>
<path d="M0 0 C0.33 0 0.66 0 1 0 C2.57993921 10.76762918 2.57993921 10.76762918 0.5 15.1875 C-5.03379028 19.19949796 -12.42937464 18.11898517 -19 18 C-19.33 17.34 -19.66 16.68 -20 16 C-18.0509375 16.0928125 -18.0509375 16.0928125 -16.0625 16.1875 C-10.98111976 16.2036058 -6.64980704 15.00315348 -2 13 C-0.18884044 11.18884044 -0.61800552 8.38721773 -0.4375 5.9375 C-0.35371094 4.83277344 -0.26992187 3.72804687 -0.18359375 2.58984375 C-0.09271484 1.30787109 -0.09271484 1.30787109 0 0 Z " fill="#D0EBEE" transform="translate(88,130)"/>
<path d="M0 0 C0.99 0.33 1.98 0.66 3 1 C3 1.66 3 2.32 3 3 C4.051875 3.2475 4.051875 3.2475 5.125 3.5 C9.27977348 5.6677079 11.62158605 9.01088799 14 13 C14.671875 15.2578125 14.671875 15.2578125 15 17 C14.01 17 13.02 17 12 17 C11.67 15.68 11.34 14.36 11 13 C10.34 13 9.68 13 9 13 C9 11.68 9 10.36 9 9 C8.01 9.33 7.02 9.66 6 10 C5.7525 9.236875 5.505 8.47375 5.25 7.6875 C3.87823242 4.73819971 2.6081283 3.82568981 0 2 C0 1.34 0 0.68 0 0 Z " fill="#55D4DE" transform="translate(96,51)"/>
<path d="M0 0 C0.625 1.75 0.625 1.75 1 4 C0.34 5.32 -0.32 6.64 -1 8 C-5.62 8 -10.24 8 -15 8 C-15.33 9.32 -15.66 10.64 -16 12 C-16.66 12 -17.32 12 -18 12 C-18.33 10.02 -18.66 8.04 -19 6 C-12.54263566 4.9870801 -12.54263566 4.9870801 -9.375 5.0625 C-6.48759793 4.98651573 -4.56304606 4.31615879 -2 3 C-1.34 2.01 -0.68 1.02 0 0 Z " fill="#4F94DE" transform="translate(110,77)"/>
<path d="M0 0 C3 0.125 3 0.125 4 1.125 C4.14115161 3.79558851 4.04247107 6.44932238 4 9.125 C3.67 9.125 3.34 9.125 3 9.125 C3 6.815 3 4.505 3 2.125 C1.35 2.125 -0.3 2.125 -2 2.125 C-2.33 8.065 -2.66 14.005 -3 20.125 C-4.32 20.125 -5.64 20.125 -7 20.125 C-6.67 18.805 -6.34 17.485 -6 16.125 C-5.67 16.785 -5.34 17.445 -5 18.125 C-4.93941406 16.90941406 -4.87882812 15.69382812 -4.81640625 14.44140625 C-4.73201668 12.85675772 -4.6473679 11.27212298 -4.5625 9.6875 C-4.50352539 8.48383789 -4.50352539 8.48383789 -4.44335938 7.25585938 C-4.05462555 0.16894273 -4.05462555 0.16894273 0 0 Z " fill="#727272" transform="translate(123,36.875)"/>
<path d="M0 0 C2.31 0 4.62 0 7 0 C5 2 5 2 2.5 3.125 C-4.41754705 6.83082878 -10.26906974 11.74296321 -15 18 C-14.5791699 13.09031551 -12.65111364 11.18501402 -9 8 C-6.91196888 6.41136616 -4.80875341 4.85435628 -2.671875 3.33203125 C-0.8678526 2.08643118 -0.8678526 2.08643118 0 0 Z " fill="#D7FAFD" transform="translate(55,46)"/>
<path d="M0 0 C2.64 0.33 5.28 0.66 8 1 C8 2.65 8 4.3 8 6 C4.04 5.67 0.08 5.34 -4 5 C-4 4.01 -4 3.02 -4 2 C-2.68 2 -1.36 2 0 2 C0 1.34 0 0.68 0 0 Z " fill="#AF6BBF" transform="translate(54,29)"/>
<path d="M0 0 C3.96 0 7.92 0 12 0 C12 1.32 12 2.64 12 4 C7.6835078 4.76173392 4.25566547 5.16063604 0 4 C0 2.68 0 1.36 0 0 Z " fill="#F9FBFB" transform="translate(69,79)"/>
<path d="M0 0 C-0.25 1.875 -0.25 1.875 -1 4 C-4.05229675 5.97501555 -6.53085259 6.2714576 -10.125 6.25 C-11.42824219 6.25773437 -11.42824219 6.25773437 -12.7578125 6.265625 C-15 6 -15 6 -17 4 C-15.01230506 2.01230506 -11.23809632 2.5660126 -8.54296875 2.37890625 C-5.42383149 1.91415001 -3.09023735 0 0 0 Z " fill="#CDCDE9" transform="translate(125,84)"/>
<path d="M0 0 C2 2 2 2 2 5 C2.66 5.33 3.32 5.66 4 6 C5.66443509 8.0111924 6.90273736 9.7568434 7.875 12.1875 C8.89809093 14.28891703 8.89809093 14.28891703 11.625 14.75 C12.40875 14.8325 13.1925 14.915 14 15 C14.33 14.34 14.66 13.68 15 13 C15 14.32 15 15.64 15 17 C10.84903546 16.75582562 8.54629151 16.43455006 5.25 13.8125 C1.71366489 9.39208111 -0.50939154 5.77310417 0 0 Z " fill="#5D9ADD" transform="translate(38,75)"/>
<path d="M0 0 C1.32 0 2.64 0 4 0 C3.67 1.98 3.34 3.96 3 6 C-0.23751678 7.07917226 -2.57751771 7.11425601 -5.98046875 7.09765625 C-7.14384766 7.09443359 -8.30722656 7.09121094 -9.50585938 7.08789062 C-10.72080078 7.07951172 -11.93574219 7.07113281 -13.1875 7.0625 C-14.41404297 7.05798828 -15.64058594 7.05347656 -16.90429688 7.04882812 C-19.93624668 7.03703065 -22.96809906 7.02056921 -26 7 C-26 6.67 -26 6.34 -26 6 C-25.35973877 5.98018066 -24.71947754 5.96036133 -24.05981445 5.93994141 C-21.1436472 5.84436399 -18.22816428 5.73481786 -15.3125 5.625 C-14.30509766 5.5940625 -13.29769531 5.563125 -12.25976562 5.53125 C-10.79506836 5.47324219 -10.79506836 5.47324219 -9.30078125 5.4140625 C-8.40528564 5.3826416 -7.50979004 5.3512207 -6.5871582 5.31884766 C-3.74908176 4.96907623 -1.56206153 4.26210756 1 3 C1.33 2.34 1.66 1.68 2 1 C1.34 0.67 0.68 0.34 0 0 Z " fill="#73AACB" transform="translate(92,111)"/>
<path d="M0 0 C1.11181641 0.30744141 1.11181641 0.30744141 2.24609375 0.62109375 C11.51870599 2.99315735 20.46484487 3.66883892 30 4 C30 4.33 30 4.66 30 5 C26.31265225 5.08776185 22.62557653 5.14064603 18.9375 5.1875 C17.37999023 5.22520508 17.37999023 5.22520508 15.79101562 5.26367188 C9.70840838 5.32160147 5.37885697 4.90687164 0 2 C0 1.34 0 0.68 0 0 Z " fill="#BFC8FA" transform="translate(53,95)"/>
<path d="M0 0 C3.96 0 7.92 0 12 0 C12 1.32 12 2.64 12 4 C9.24921116 4.91692961 7.64051087 5.10886083 4.8125 5.0625 C2.9253125 5.0315625 2.9253125 5.0315625 1 5 C2.32 4.34 3.64 3.68 5 3 C2.03 2.505 2.03 2.505 -1 2 C-0.67 1.34 -0.34 0.68 0 0 Z " fill="#7C21D3" transform="translate(52,17)"/>
<path d="M0 0 C-0.30679688 0.54140625 -0.61359375 1.0828125 -0.9296875 1.640625 C-2.15628211 4.34450508 -2.63743776 6.82462658 -3.125 9.75 C-3.29257812 10.73484375 -3.46015625 11.7196875 -3.6328125 12.734375 C-3.75398438 13.48203125 -3.87515625 14.2296875 -4 15 C-4.99 15.33 -5.98 15.66 -7 16 C-7.2134222 10.66444505 -7.34551123 5.93791838 -5 1 C-2 0 -2 0 0 0 Z " fill="#FBF1FC" transform="translate(42,19)"/>
<path d="M0 0 C0.33 0 0.66 0 1 0 C1.34214068 4.38446947 1.5244691 8.6258196 1 13 C-1.990467 16.12955849 -3.60963648 16.87909882 -7.875 17.25 C-8.57625 17.1675 -9.2775 17.085 -10 17 C-8.68 16.67 -7.36 16.34 -6 16 C-6 15.01 -6 14.02 -6 13 C-5.195625 12.46375 -4.39125 11.9275 -3.5625 11.375 C-0.23304199 8.28916087 -0.30422193 6.20588095 -0.04296875 1.828125 C-0.02169922 0.92320312 -0.02169922 0.92320312 0 0 Z " fill="#84D3D6" transform="translate(87,129)"/>
<path d="M0 0 C2 2 2 2 2.1953125 3.9453125 C2.13020833 5.96354167 2.06510417 7.98177083 2 10 C-0.95664519 11.4783226 -3.74229737 11.06032783 -7 11 C-7.33 9.68 -7.66 8.36 -8 7 C-7.38125 7.165 -6.7625 7.33 -6.125 7.5 C-4.03936614 8.07634644 -4.03936614 8.07634644 -2 8 C-1.855625 7.4225 -1.71125 6.845 -1.5625 6.25 C-1.04166667 4.16666667 -0.52083333 2.08333333 0 0 Z " fill="#B23F9F" transform="translate(72,24)"/>
<path d="M0 0 C0.99 0.33 1.98 0.66 3 1 C2.34 1.66 1.68 2.32 1 3 C1 3.99 1 4.98 1 6 C-0.65 6.66 -2.3 7.32 -4 8 C-4 9.32 -4 10.64 -4 12 C-4.66 12 -5.32 12 -6 12 C-5.49135273 7.62563349 -4.57073772 4.59903281 -2 1 C-1.34 0.67 -0.68 0.34 0 0 Z " fill="#50C2DA" transform="translate(44,60)"/>
<path d="M0 0 C0.99 0 1.98 0 3 0 C4.90877584 2.58246143 6.56377246 5.12754491 8 8 C7.34 8 6.68 8 6 8 C5.34 8.66 4.68 9.32 4 10 C0.38860104 6.12435233 0.38860104 6.12435233 -1 4 C-0.8125 1.625 -0.8125 1.625 0 0 Z " fill="#F0DFEB" transform="translate(36,33)"/>
<path d="M0 0 C0.33 0.66 0.66 1.32 1 2 C0.360625 2.474375 -0.27875 2.94875 -0.9375 3.4375 C-3.84850272 7.05420035 -3.80649782 10.47204894 -4 15 C-5.32 14.67 -6.64 14.34 -8 14 C-7.34 13.67 -6.68 13.34 -6 13 C-5.53348793 10.87423218 -5.53348793 10.87423218 -5.375 8.4375 C-5.30023438 7.61121094 -5.22546875 6.78492188 -5.1484375 5.93359375 C-5.09945312 5.29550781 -5.05046875 4.65742187 -5 4 C-5.66 3.67 -6.32 3.34 -7 3 C-7 2.34 -7 1.68 -7 1 C-3.535 0.505 -3.535 0.505 0 0 Z " fill="#C76C9F" transform="translate(72,34)"/>
<path d="M0 0 C-3.88232925 2.5882195 -6.72514539 3.13053468 -11.328125 3.09765625 C-12.12734375 3.09443359 -12.9265625 3.09121094 -13.75 3.08789062 C-14.575 3.07951172 -15.4 3.07113281 -16.25 3.0625 C-17.09046875 3.05798828 -17.9309375 3.05347656 -18.796875 3.04882812 C-20.86461401 3.03707961 -22.93231624 3.01914522 -25 3 C-25 2.67 -25 2.34 -25 2 C-23.74896484 1.92652344 -23.74896484 1.92652344 -22.47265625 1.8515625 C-17.17562598 1.49964067 -12.04187358 1.13896246 -6.875 -0.125 C-3 -1 -3 -1 0 0 Z " fill="#C0C0D4" transform="translate(92,111)"/>
<path d="M0 0 C1.875 2.375 1.875 2.375 3 5 C2.67 5.66 2.34 6.32 2 7 C1.34 7 0.68 7 0 7 C-1.625 5 -1.625 5 -3 3 C-3.33 3.66 -3.66 4.32 -4 5 C-5.65 4.67 -7.3 4.34 -9 4 C-9 3.34 -9 2.68 -9 2 C-5.90428591 0.16550276 -3.59379371 -0.6450399 0 0 Z " fill="#2AD6D7" transform="translate(64,49)"/>
<path d="M0 0 C3.79588866 0.54226981 5.47211993 2.20127563 8 5 C7.67 5.66 7.34 6.32 7 7 C3.92619395 7 1.01996783 6.54908506 -2 6 C-2.33 5.34 -2.66 4.68 -3 4 C-2.01 3.67 -1.02 3.34 0 3 C0 2.01 0 1.02 0 0 Z " fill="#9341D3" transform="translate(64,17)"/>
<path d="M0 0 C2.97 0.33 5.94 0.66 9 1 C9 1.66 9 2.32 9 3 C10.4540625 3.433125 10.4540625 3.433125 11.9375 3.875 C15 5 15 5 16 7 C4.00448483 4.03788505 4.00448483 4.03788505 0 1 C0 0.67 0 0.34 0 0 Z " fill="#708EDD" transform="translate(47,91)"/>
<path d="M0 0 C5.28 0 10.56 0 16 0 C16 0.99 16 1.98 16 3 C14.27119018 3.05449838 12.54187288 3.09301688 10.8125 3.125 C9.84957031 3.14820313 8.88664062 3.17140625 7.89453125 3.1953125 C4.87187222 2.9913544 2.73230015 2.26874632 0 1 C0 0.67 0 0.34 0 0 Z " fill="#D77896" transform="translate(46,42)"/>
<path d="M0 0 C1.32 0 2.64 0 4 0 C3.67 0.99 3.34 1.98 3 3 C3.08521741 4.89952346 3.23729084 6.79663573 3.4375 8.6875 C3.53933594 9.68136719 3.64117187 10.67523438 3.74609375 11.69921875 C3.82988281 12.45847656 3.91367188 13.21773437 4 14 C3.01 14.66 2.02 15.32 1 16 C1.01160156 15.26394531 1.02320312 14.52789062 1.03515625 13.76953125 C1.04417969 12.79371094 1.05320312 11.81789063 1.0625 10.8125 C1.07410156 9.84957031 1.08570312 8.88664062 1.09765625 7.89453125 C1.00486622 5.14423487 0.62111685 2.67520409 0 0 Z " fill="#8996DE" transform="translate(123,64)"/>
<path d="M0 0 C0.66 1.32 1.32 2.64 2 4 C0.02 4.99 0.02 4.99 -2 6 C-2.33 5.34 -2.66 4.68 -3 4 C-3.99 3.67 -4.98 3.34 -6 3 C-6 3.99 -6 4.98 -6 6 C-6.66 6 -7.32 6 -8 6 C-8 4.68 -8 3.36 -8 2 C-8.66 1.67 -9.32 1.34 -10 1 C-8.906875 1.020625 -7.81375 1.04125 -6.6875 1.0625 C-3.05615809 1.18544452 -3.05615809 1.18544452 0 0 Z " fill="#A43DAB" transform="translate(70,28)"/>
<path d="M0 0 C4.8 3.44615385 4.8 3.44615385 5.8125 6.25 C5.874375 6.8275 5.93625 7.405 6 8 C3.75 8.3125 3.75 8.3125 1 8 C-1.3125 5.5 -1.3125 5.5 -3 3 C-2.01 3 -1.02 3 0 3 C0 2.01 0 1.02 0 0 Z " fill="#E4DCE9" transform="translate(71,16)"/>
<path d="M0 0 C0.99 0.33 1.98 0.66 3 1 C3.6875 3.0625 3.6875 3.0625 4 5 C1.6875 7.0625 1.6875 7.0625 -1 9 C-1.99 8.67 -2.98 8.34 -4 8 C-3.01 7.01 -2.02 6.02 -1 5 C-1.66 4.34 -2.32 3.68 -3 3 C-2.01 3 -1.02 3 0 3 C0 2.01 0 1.02 0 0 Z " fill="#43A0E2" transform="translate(98,73)"/>
<path d="M0 0 C0 0.66 0 1.32 0 2 C-4.88077452 4.44038726 -7.52667068 5.46845421 -13 4 C-10.34531286 2.23020858 -8.92500069 1.57859829 -5.9375 0.875 C-5.24527344 0.70742187 -4.55304688 0.53984375 -3.83984375 0.3671875 C-2 0 -2 0 0 0 Z " fill="#D2D9F5" transform="translate(98,95)"/>
<path d="M0 0 C0.66 0.33 1.32 0.66 2 1 C1.34 2.32 0.68 3.64 0 5 C-0.99 5 -1.98 5 -3 5 C-2.67 7.64 -2.34 10.28 -2 13 C-2.99 13.33 -3.98 13.66 -5 14 C-5.29557392 8.97524332 -5.0282379 6.07647409 -2 2 C-1.34 1.34 -0.68 0.68 0 0 Z " fill="#AC66C5" transform="translate(43,19)"/>
<path d="M0 0 C6.875 0.875 6.875 0.875 8 2 C10.32817964 2.36760731 12.6618385 2.70241581 15 3 C15 3.66 15 4.32 15 5 C11.37 4.67 7.74 4.34 4 4 C4 3.34 4 2.68 4 2 C2.68 1.67 1.36 1.34 0 1 C0 0.67 0 0.34 0 0 Z " fill="#88D6D5" transform="translate(62,142)"/>
<path d="M0 0 C1.98 0 3.96 0 6 0 C6 0.66 6 1.32 6 2 C4.42085985 2.53341184 2.83645613 3.05125763 1.25 3.5625 C0.36828125 3.85253906 -0.5134375 4.14257812 -1.421875 4.44140625 C-4.07834316 5.01697435 -5.47031106 4.89248371 -8 4 C-4.77208445 1.8480563 -3.71599191 1.79913557 0 2 C0 1.34 0 0.68 0 0 Z " fill="#959595" transform="translate(41,105)"/>
<path d="M0 0 C0.66 0 1.32 0 2 0 C2 0.66 2 1.32 2 2 C3.32 2.33 4.64 2.66 6 3 C3.94766315 5.2477975 2.99332739 6.0022242 0 7 C-0.66 5.68 -1.32 4.36 -2 3 C-1.34 2.01 -0.68 1.02 0 0 Z " fill="#5862AF" transform="translate(125,79)"/>
<path d="M0 0 C2.6068127 0.21881019 5.20220189 0.41012853 7.8125 0.5625 C8.85180664 0.62727539 8.85180664 0.62727539 9.91210938 0.69335938 C11.60788686 0.79861453 13.30392052 0.89972863 15 1 C15 1.33 15 1.66 15 2 C11.89591193 2.05807043 8.7919636 2.09361914 5.6875 2.125 C4.36588867 2.15013672 4.36588867 2.15013672 3.01757812 2.17578125 C2.17001953 2.18222656 1.32246094 2.18867187 0.44921875 2.1953125 C-0.33106689 2.20578613 -1.11135254 2.21625977 -1.9152832 2.22705078 C-4 2 -4 2 -7 0 C-4.27949863 -1.36025069 -2.97465183 -0.62090277 0 0 Z " fill="#6D82D4" transform="translate(70,97)"/>
<path d="M0 0 C0.99 0.33 1.98 0.66 3 1 C2 4 2 4 -1.3125 5.75 C-5.97563098 7.33072237 -5.97563098 7.33072237 -9 6 C-5.91190305 4.23537317 -4.76687864 4 -1 4 C-0.67 2.68 -0.34 1.36 0 0 Z " fill="#7E7E7E" transform="translate(91,160)"/>
<path d="M0 0 C3.48330216 0.64505596 6.09432866 1.98217268 9 4 C9 4.66 9 5.32 9 6 C6.69 5.67 4.38 5.34 2 5 C1.34 3.35 0.68 1.7 0 0 Z " fill="#C2C2C2" transform="translate(37,100)"/>
<path d="M0 0 C1.21236328 0.02707031 1.21236328 0.02707031 2.44921875 0.0546875 C3.37154297 0.08949219 3.37154297 0.08949219 4.3125 0.125 C4.9725 1.445 5.6325 2.765 6.3125 4.125 C1.6925 3.465 -2.9275 2.805 -7.6875 2.125 C-4.48369983 -0.01086678 -3.66810033 -0.10632175 0 0 Z " fill="#FDF8FC" transform="translate(57.6875,11.875)"/>
<path d="M0 0 C0 1.65 0 3.3 0 5 C-2.31 4.67 -4.62 4.34 -7 4 C-6.67 3.01 -6.34 2.02 -6 1 C-3.90006779 0.25486277 -2.22568901 0 0 0 Z " fill="#42A1DE" transform="translate(98,68)"/>
<path d="M0 0 C0 0.33 0 0.66 0 1 C-1.21236328 1.19916016 -1.21236328 1.19916016 -2.44921875 1.40234375 C-3.51785156 1.57894531 -4.58648437 1.75554688 -5.6875 1.9375 C-6.74324219 2.11152344 -7.79898438 2.28554687 -8.88671875 2.46484375 C-10.85678387 2.80348732 -12.82019991 3.18625132 -14.76953125 3.62890625 C-17 4 -17 4 -19 3 C-12.47059106 0.04328652 -7.12600133 -0.35368021 0 0 Z " fill="#D2D1D0" transform="translate(62,11)"/>
<path d="M0 0 C1.875 0.625 1.875 0.625 4 2 C5.25 5.125 5.25 5.125 6 8 C5.01 8 4.02 8 3 8 C2.67 6.68 2.34 5.36 2 4 C1.34 4 0.68 4 0 4 C0 2.68 0 1.36 0 0 Z " fill="#59C6DA" transform="translate(105,60)"/>
<path d="M0 0 C2.64 0.66 5.28 1.32 8 2 C8 2.66 8 3.32 8 4 C8.99 4.33 9.98 4.66 11 5 C9.741875 4.87625 8.48375 4.7525 7.1875 4.625 C6.12595703 4.52058594 6.12595703 4.52058594 5.04296875 4.4140625 C3 4 3 4 0 2 C0 1.34 0 0.68 0 0 Z " fill="#D2DCF5" transform="translate(53,95)"/>
<path d="M0 0 C0.33 0 0.66 0 1 0 C1.04898438 0.63808594 1.09796875 1.27617188 1.1484375 1.93359375 C1.22320312 2.75988281 1.29796875 3.58617188 1.375 4.4375 C1.44460937 5.26121094 1.51421875 6.08492188 1.5859375 6.93359375 C1.72257812 7.61550781 1.85921875 8.29742187 2 9 C2.66 9.33 3.32 9.66 4 10 C3.01 11.485 3.01 11.485 2 13 C-0.20914 9.68629 -0.22481553 8.6553979 -0.125 4.8125 C-0.10695312 3.91144531 -0.08890625 3.01039062 -0.0703125 2.08203125 C-0.04710937 1.39496094 -0.02390625 0.70789063 0 0 Z " fill="#4097D6" transform="translate(61,67)"/>
<path d="M0 0 C1.32 0.66 2.64 1.32 4 2 C4 1.34 4 0.68 4 0 C5.65 0 7.3 0 9 0 C6.07081664 2.49523027 3.84505198 3.60563569 0 4 C-0.99 3.67 -1.98 3.34 -3 3 C-2.01 2.01 -1.02 1.02 0 0 Z " fill="#E6DCF0" transform="translate(40,16)"/>
<path d="M0 0 C1.45922693 0.11409593 2.91740598 0.24165544 4.375 0.375 C5.59316406 0.47941406 5.59316406 0.47941406 6.8359375 0.5859375 C9 1 9 1 11 3 C3.57142857 3.28571429 3.57142857 3.28571429 0 1 C0 0.67 0 0.34 0 0 Z " fill="#1D3F8A" transform="translate(66,140)"/>
<path d="M0 0 C0.66 0 1.32 0 2 0 C0.54744301 3.82946843 -1.42895561 5.12050295 -5 7 C-5 6.01 -5 5.02 -5 4 C-3.35 3.34 -1.7 2.68 0 2 C0 1.34 0 0.68 0 0 Z " fill="#E1E3E3" transform="translate(98,149)"/>
<path d="M0 0 C-0.33 1.65 -0.66 3.3 -1 5 C-3.31 4.34 -5.62 3.68 -8 3 C-7.67 2.34 -7.34 1.68 -7 1 C-4.61370553 0.38812962 -2.46459429 0 0 0 Z " fill="#36BBDF" transform="translate(64,62)"/>
<path d="M0 0 C3.96 0 7.92 0 12 0 C12 0.33 12 0.66 12 1 C10.7625 1.144375 9.525 1.28875 8.25 1.4375 C5.43495501 1.78688502 2.7298503 2.20379366 0 3 C0 2.01 0 1.02 0 0 Z " fill="#32337E" transform="translate(105,86)"/>
<path d="M0 0 C0.66 0.33 1.32 0.66 2 1 C-0.12055614 4.1808342 -1.63050557 5.31525278 -5 7 C-5.66 6.67 -6.32 6.34 -7 6 C-4.69 4.02 -2.38 2.04 0 0 Z " fill="#767676" transform="translate(31,110)"/>
<path d="M0 0 C1.32 0.33 2.64 0.66 4 1 C3.01 2.485 3.01 2.485 2 4 C-0.4375 3.625 -0.4375 3.625 -3 3 C-3.33 2.34 -3.66 1.68 -4 1 C-2.68 1.33 -1.36 1.66 0 2 C0 1.34 0 0.68 0 0 Z " fill="#E3E2E1" transform="translate(52,104)"/>
<path d="M0 0 C-1 3 -1 3 -3.375 4.1875 C-6 5 -6 5 -9 5 C-3.375 0 -3.375 0 0 0 Z " fill="#C7D6F5" transform="translate(108,89)"/>
<path d="M0 0 C-2.26185454 2.26185454 -3.96983561 3.03921617 -7 4 C-7.99 3.67 -8.98 3.34 -10 3 C-7.29536552 -0.8183075 -4.37912428 -0.24787496 0 0 Z " fill="#ECFEFD" transform="translate(62,46)"/>
<path d="M0 0 C2 2 2 2 2.1953125 3.9453125 C2.13020833 5.96354167 2.06510417 7.98177083 2 10 C1.67 9.01 1.34 8.02 1 7 C0.34 7 -0.32 7 -1 7 C-0.67 4.69 -0.34 2.38 0 0 Z " fill="#BB75C3" transform="translate(72,24)"/>
<path d="M0 0 C0.33 0 0.66 0 1 0 C1 3.63 1 7.26 1 11 C-0.32 11.33 -1.64 11.66 -3 12 C-2.34 11.01 -1.68 10.02 -1 9 C-0.54605448 6.72087062 -0.54605448 6.72087062 -0.375 4.3125 C-0.30023438 3.50425781 -0.22546875 2.69601563 -0.1484375 1.86328125 C-0.09945312 1.24839844 -0.05046875 0.63351563 0 0 Z " fill="#6B9EC7" transform="translate(87,129)"/>
<path d="M0 0 C2.64 0 5.28 0 8 0 C8 0.66 8 1.32 8 2 C2.25 3.125 2.25 3.125 0 2 C0 1.34 0 0.68 0 0 Z " fill="#699BDA" transform="translate(70,85)"/>
</svg>
